<svg preserveAspectRatio="xMidYMid meet" data-bbox="30 43.892 139.9 112.308" xmlns="http://www.w3.org/2000/svg" width="200" height="200" viewBox="30 43.892 139.9 112.308" data-type="color" role="presentation" aria-hidden="true" aria-label=""><defs><style>#comp-ln3r9rtj7 svg [data-color="1"] {fill: #0F9E82;}</style></defs>
    <g>
        <path fill="#0F9E82" d="M169.9 126.6V60.8c0-3.9-3.2-7-7.1-7h-6.7l.8-7.7c.1-1.1-.7-2-1.8-2.2-1.1-.1-2 .7-2.2 1.8l-.8 8.1h-23.7v-7.9c0-1.1-.9-2-2-2s-2 .9-2 2v7.9h-23.7l-1.1-8.1c-.1-1.1-1.1-1.8-2.2-1.7-1.1.1-1.8 1.1-1.7 2.2l1 7.6H73.5v-7.9c0-1.1-.9-2-2-2s-2 .9-2 2v7.9H46.1l.3-7.9c0-1.1-.8-2-1.9-2-1.1 0-2 .8-2 1.9l-.3 8H32c-1.1 0-2 .9-2 2v94.4c0 1.6.6 3.1 1.8 4.2 1.1 1.1 2.6 1.8 4.2 1.8l131.8-.1c1.1 0 2-.9 2-2l.1-27.5zM34 81.4h17.7v18.4h-13c-1.1 0-2 .9-2 2s.9 2 2 2h13v21.1H34V81.4zM165.9 100l-19.8-.1V81.2h19.8V100zm-23.7-18.7V100l-25.3-.1V81.3h25.3zM113 99.9l-26.6-.1V81.3h26.7l-.1 18.6zm0 3.9v20.9H86.4v-20.9H113zM82.4 81.3v18.5l-26.7-.1V81.3h26.7zm-26.7 22.4l26.7.1v21H55.7v-21.1zm26.7 24.9v23.6H55.7v-23.6h26.7zm4 0H113v12.2c0 1.1.9 2 2 2s2-.9 2-2v-12.3h25.4v23.6H86.5l-.1-23.5zm30.5-3.9v-20.8l25.3.1v20.7h-25.3zm29.3-20.8l19.8.1v20.7h-19.8v-20.8zM42.1 57.7l-.3 7.8c0 1.1.8 2 1.9 2h.1c1.1 0 1.9-.8 2-1.9l.3-8h23.6v7.9c0 1.1.9 2 2 2s2-.9 2-2v-7.9h23.7l1.1 8.1c.1 1 1 1.7 1.9 1.7h.3c1.1-.1 1.8-1.1 1.7-2.2l-1-7.6h23.2v7.9c0 1.1.9 2 2 2s2-.9 2-2v-7.9h23.3l-.8 7.7c-.1 1.1.7 2 1.8 2.2h.2c1 0 1.9-.8 2-1.8l.8-8.1h7.1c1.7 0 3.1 1.4 3.1 3.1v16.6H34.3V57.6l7.8.1zm-6 94.5c-.6 0-1.1-.2-1.5-.6-.4-.4-.6-.9-.6-1.5v-21.5h17.7v23.6H36.1zm110.1 0v-23.6H166v23.6h-19.8z" data-color="1"></path>
    </g>
</svg>