<svg width="159" height="159" xmlns="http://www.w3.org/2000/svg" xmlns:xlink="http://www.w3.org/1999/xlink" xml:space="preserve" overflow="hidden"><g transform="translate(-822 -542)"><g><g><g><g><path d="M959.571 548.907 844.429 548.907C835.337 548.907 827.937 556.301 827.937 565.393L827.937 632.493C827.937 641.585 835.331 648.985 844.429 648.985L887.897 648.985 887.897 671.556 860.26 671.556C853.767 671.556 848.49 676.839 848.49 683.326 848.49 689.818 853.773 695.096 860.26 695.096L943.753 695.096C950.246 695.096 955.523 689.812 955.523 683.326 955.523 676.833 950.24 671.556 943.753 671.556L916.116 671.556 916.116 648.985 959.584 648.985C968.676 648.985 976.076 641.59 976.076 632.493L976.064 565.393C976.064 556.301 968.669 548.907 959.572 548.907ZM844.429 553.844 959.577 553.844C965.947 553.844 971.131 559.029 971.131 565.393L971.131 627.074 900.192 627.074C900.235 626.469 900.279 625.858 900.279 625.241 900.279 614.946 893.977 606.09 885.035 602.331 889.442 599.283 892.342 594.197 892.342 588.439 892.342 579.125 884.763 571.547 875.45 571.547 866.137 571.547 858.559 579.126 858.559 588.439 858.559 594.191 861.459 599.277 865.866 602.331 856.923 606.09 850.628 614.946 850.628 625.241 850.628 625.858 850.672 626.463 850.715 627.074L832.878 627.074 832.884 565.393C832.884 559.023 838.069 553.844 844.438 553.844ZM855.649 627.074C855.593 626.468 855.562 625.863 855.562 625.24 855.562 614.267 864.474 605.336 875.435 605.336 886.396 605.336 895.339 614.267 895.339 625.24 895.339 625.857 895.308 626.475 895.253 627.074ZM875.448 600.392C868.857 600.392 863.494 595.029 863.494 588.438 863.494 581.847 868.857 576.484 875.448 576.484 882.04 576.484 887.403 581.847 887.403 588.438 887.403 595.029 882.04 600.392 875.448 600.392ZM950.585 683.324C950.585 687.088 947.517 690.156 943.752 690.156L860.253 690.156C856.488 690.156 853.42 687.089 853.42 683.324 853.42 679.559 856.488 676.491 860.253 676.491L943.746 676.491C947.51 676.491 950.578 679.559 950.578 683.324ZM911.171 671.554 892.829 671.554 892.829 648.983 911.171 648.983ZM959.577 644.045 844.428 644.039C838.059 644.039 832.874 638.854 832.874 632.485L832.874 632.004 971.124 632.004 971.124 632.485C971.124 638.855 965.94 644.039 959.57 644.039Z" fill="#0F9D81" fill-rule="nonzero" fill-opacity="1"/><path d="M930.119 593.517C930.582 593.98 931.211 594.239 931.866 594.239 932.52 594.239 933.149 593.98 933.612 593.517L947.104 580.025C951.523 575.606 951.523 568.422 947.104 564.009 942.938 559.843 936.309 559.608 931.866 563.299 927.423 559.602 920.794 559.843 916.628 564.009 914.486 566.145 913.307 568.99 913.307 572.02 913.307 575.045 914.486 577.89 916.628 580.032L930.119 593.523ZM920.115 567.496C921.361 566.25 922.997 565.633 924.633 565.633 926.269 565.633 927.905 566.256 929.151 567.496L930.299 568.588C931.274 569.403 932.706 569.354 933.613 568.465L934.582 567.502C937.069 565.009 941.124 565.009 943.618 567.502 946.11 569.995 946.11 574.044 943.618 576.538L931.867 588.289 920.116 576.538C918.906 575.328 918.247 573.723 918.247 572.02 918.247 570.317 918.913 568.712 920.116 567.502Z" fill="#0F9D81" fill-rule="nonzero" fill-opacity="1"/><path d="M912.819 606.996 950.912 606.996C952.277 606.996 953.381 605.892 953.381 604.527 953.381 603.163 952.277 602.059 950.912 602.059L912.819 602.059C911.455 602.059 910.351 603.163 910.351 604.527 910.351 605.892 911.455 606.996 912.819 606.996Z" fill="#0F9D81" fill-rule="nonzero" fill-opacity="1"/><path d="M912.819 618.673 950.912 618.673C952.277 618.673 953.381 617.569 953.381 616.205 953.381 614.84 952.277 613.736 950.912 613.736L912.819 613.736C911.455 613.736 910.351 614.84 910.351 616.205 910.351 617.569 911.455 618.673 912.819 618.673Z" fill="#0F9D81" fill-rule="nonzero" fill-opacity="1"/></g></g></g></g></g></svg>