<svg preserveAspectRatio="xMidYMid meet" data-bbox="32.443 32.444 135.114 135.112" viewBox="32.443 32.444 135.114 135.112" height="200" width="200" xmlns="http://www.w3.org/2000/svg" data-type="color" role="presentation" aria-hidden="true" aria-label=""><defs><style>#comp-ln3r9rtp6 svg [data-color="1"] {fill: #0F9E82;}</style></defs>
    <g>
        <path d="M99.999 32.444c-37.251 0-67.556 30.304-67.556 67.555 0 37.253 30.305 67.557 67.556 67.557 37.252 0 67.558-30.304 67.558-67.557 0-37.251-30.306-67.555-67.558-67.555zm0 123.166c-30.663 0-55.608-24.948-55.608-55.611 0-30.661 24.945-55.609 55.608-55.609s55.611 24.948 55.611 55.609c0 30.663-24.948 55.611-55.611 55.611z" fill="#0F9E82" data-color="1"></path>
        <path fill="#0F9E82" d="M88.638 87.624a8.582 8.582 0 1 1-17.164 0 8.582 8.582 0 0 1 17.164 0z" data-color="1"></path>
        <path fill="#0F9E82" d="M128.525 87.624a8.581 8.581 0 1 1-17.162 0 8.581 8.581 0 0 1 17.162 0z" data-color="1"></path>
        <path d="M99.999 143.678c15.749 0 28.561-12.812 28.561-28.559H71.44c0 15.748 12.811 28.559 28.559 28.559z" fill="#0F9E82" data-color="1"></path>
    </g>
</svg>